<?xml version="1.0" standalone="no"?>
<!DOCTYPE svg >
<svg version="1.0" xmlns="http://www.w3.org/2000/svg"
 width="1280.000000pt" height="1106.000000pt" viewBox="0 0 1280.000000 1106.000000"
 preserveAspectRatio="xMidYMid meet">
<metadata>
Created by potrace 1.15, written by Peter Selinger 2001-2017
</metadata>
<g transform="translate(0.000000,1106.000000) scale(0.100000,-0.100000)"
fill="#FFFFFF" stroke="none">
<path d="M1980 10888 c-23 -95 -75 -310 -116 -478 -41 -168 -88 -359 -104
-425 -16 -66 -65 -266 -109 -445 -43 -179 -102 -420 -131 -537 -51 -209 -52
-212 -88 -240 -159 -120 -499 -443 -656 -623 -532 -605 -795 -1233 -772 -1840
15 -400 131 -751 365 -1101 595 -890 1817 -1491 3236 -1590 211 -14 774 -6
965 15 74 8 136 13 138 12 4 -5 -36 -484 -68 -816 -110 -1100 -249 -1850 -402
-2153 -24 -49 -60 -99 -93 -133 -71 -71 -74 -104 -14 -169 179 -194 1097 -384
1754 -361 330 11 549 54 735 145 130 63 293 225 362 358 l33 63 55 0 c82 0
296 27 400 50 508 113 1116 476 1591 950 411 410 613 828 696 1435 19 141 22
451 13 1190 -4 318 -2 384 13 472 45 269 130 429 312 586 177 153 340 262 476
316 300 120 588 27 1034 -332 483 -389 686 -666 685 -933 -1 -156 -53 -268
-189 -405 -158 -159 -412 -308 -751 -438 -262 -101 -332 -133 -371 -171 -45
-43 -49 -71 -14 -98 45 -35 119 -47 300 -46 341 2 769 93 1035 222 253 122
416 342 482 647 19 92 16 342 -6 445 -107 495 -463 938 -1046 1304 -136 86
-380 206 -498 246 -381 128 -698 118 -1007 -34 -356 -175 -662 -552 -864
-1064 -71 -180 -79 -254 -63 -585 24 -496 13 -842 -37 -1132 -77 -447 -252
-896 -468 -1198 -75 -104 -260 -297 -377 -391 -314 -254 -708 -440 -1218 -576
-111 -29 -108 -30 -108 36 0 31 -11 111 -25 178 -54 271 -187 587 -401 953
-116 199 -123 211 -475 743 -169 256 -330 506 -358 555 l-52 90 58 7 c32 3
135 11 228 18 949 61 1844 368 2490 854 193 144 430 373 568 546 362 454 557
986 557 1521 0 589 -212 1152 -634 1679 -96 119 -351 384 -464 483 l-53 46
-222 1140 c-123 627 -225 1142 -228 1145 -3 3 -193 -338 -423 -757 -231 -419
-420 -763 -421 -765 -2 -2 -67 17 -145 42 -269 87 -586 155 -880 190 -216 26
-433 36 -785 36 -563 0 -1099 -39 -2214 -160 -207 -23 -295 -29 -300 -21 -3 6
-197 339 -431 740 -287 494 -430 730 -442 731 -13 0 -25 -35 -58 -172z"/>
</g>
</svg>
